<svg width="89" height="18" viewBox="0 0 89 18" fill="none" xmlns="http://www.w3.org/2000/svg">
<mask id="mask0_54_13" style="mask-type:luminance" maskUnits="userSpaceOnUse" x="0" y="0" width="19" height="18">
<path d="M18.4527 0H0V17.944H18.4527V0Z" fill="white"/>
</mask>
<g mask="url(#mask0_54_13)">
<path d="M1.84766 20.8347C1.84766 15.6202 3.91866 10.6191 7.6053 6.93116C11.292 3.24334 16.2923 1.17068 21.5069 1.16895" stroke="#171420" stroke-width="5.2348" stroke-miterlimit="10"/>
<path d="M16.5981 20.8282C16.5989 18.2468 16.0912 15.6906 15.1039 13.3054C14.1167 10.9203 12.6692 8.75296 10.8442 6.92736C9.01919 5.10177 6.85242 3.65363 4.46761 2.66558C2.0828 1.67753 -0.473304 1.16895 -3.05469 1.16895" stroke="#171420" stroke-width="5.2348" stroke-miterlimit="10"/>
</g>
<path d="M61.8739 17.6458C60.8225 17.6458 59.9573 17.3663 59.2785 16.8072C58.613 16.2349 58.2803 15.4962 58.2803 14.5912C58.2803 13.7393 58.5598 13.014 59.1188 12.415C59.6911 11.8028 60.5829 11.3968 61.7941 11.1972L65.4476 10.5982C65.3944 9.91942 65.1415 9.38712 64.689 9.00112C64.2497 8.61512 63.6574 8.42212 62.9121 8.42212H59.3185V6.64522H62.952C64.3229 6.64522 65.3944 7.01792 66.1663 7.76332C66.9383 8.50862 67.3243 9.54012 67.3243 10.8578V17.4062H65.5075V16.0087C65.1215 16.5011 64.6157 16.9004 63.9902 17.2065C63.3646 17.4994 62.6592 17.6458 61.8739 17.6458ZM60.2368 14.5313C60.2368 14.9705 60.4099 15.3365 60.7559 15.6293C61.1153 15.9221 61.5612 16.0686 62.0935 16.0686C62.7723 16.0686 63.3646 15.9288 63.8704 15.6493C64.3762 15.3565 64.7688 14.9638 65.0483 14.4714C65.3278 13.9789 65.4676 13.4332 65.4676 12.8343V12.1555L62.2133 12.6945C61.5212 12.8143 61.0155 13.0339 60.696 13.3534C60.3899 13.6728 60.2368 14.0654 60.2368 14.5313ZM74.5753 17.6458C73.8034 17.6458 73.0847 17.4927 72.4192 17.1866C71.767 16.8671 71.2346 16.4213 70.822 15.8489V17.4062H69.0052V2.29297H70.8619V8.10272C71.2745 7.57032 71.8003 7.15772 72.4391 6.86492C73.078 6.55872 73.7967 6.40572 74.5953 6.40572C75.6202 6.40572 76.5319 6.65192 77.3305 7.14442C78.1291 7.63682 78.7613 8.30902 79.2271 9.16082C79.693 9.99932 79.9259 10.9576 79.9259 12.0357C79.9259 13.1005 79.693 14.0588 79.2271 14.9106C78.7613 15.7491 78.1224 16.4146 77.3105 16.9071C76.5119 17.3995 75.6002 17.6458 74.5753 17.6458ZM74.4356 15.8489C75.1144 15.8489 75.7133 15.6826 76.2324 15.3498C76.7648 15.0171 77.1841 14.5646 77.4902 13.9922C77.7963 13.4066 77.9494 12.7544 77.9494 12.0357C77.9494 11.3037 77.7963 10.6515 77.4902 10.0792C77.1841 9.49352 76.7648 9.03432 76.2324 8.70162C75.7133 8.36892 75.1144 8.20252 74.4356 8.20252C73.7701 8.20252 73.1645 8.37552 72.6188 8.72162C72.0731 9.05432 71.6405 9.50682 71.3211 10.0792C71.015 10.6515 70.8619 11.3037 70.8619 12.0357C70.8619 12.7544 71.015 13.4066 71.3211 13.9922C71.6405 14.5646 72.0731 15.0171 72.6188 15.3498C73.1645 15.6826 73.7701 15.8489 74.4356 15.8489ZM85.0158 17.6458C83.9377 17.6458 82.9993 17.3796 82.2007 16.8472C81.4022 16.3148 80.8365 15.5961 80.5038 14.691L81.9811 13.9723C82.2873 14.6244 82.7065 15.1369 83.2389 15.5095C83.7713 15.8689 84.3636 16.0486 85.0158 16.0486C85.6014 16.0486 86.0872 15.9088 86.4732 15.6293C86.8592 15.3498 87.0522 14.9838 87.0522 14.5313C87.0522 14.2118 86.959 13.959 86.7727 13.7726C86.5996 13.573 86.3867 13.4199 86.1338 13.3134C85.8942 13.1936 85.6613 13.1071 85.435 13.0539L83.8179 12.5947C82.8463 12.3285 82.1342 11.9359 81.6817 11.4168C81.2424 10.8844 81.0228 10.2722 81.0228 9.58002C81.0228 8.94122 81.1826 8.38882 81.502 7.92302C81.8347 7.44382 82.2806 7.07122 82.8396 6.80502C83.4119 6.53882 84.0508 6.40572 84.7562 6.40572C85.7012 6.40572 86.5464 6.64522 87.2917 7.12442C88.0504 7.60352 88.5894 8.27572 88.9089 9.14082L87.3916 9.83962C87.152 9.28062 86.786 8.84142 86.2935 8.52192C85.8143 8.18922 85.282 8.02282 84.6963 8.02282C84.1639 8.02282 83.7314 8.15592 83.3986 8.42212C83.0792 8.68832 82.9195 9.03432 82.9195 9.46032C82.9195 9.76642 82.9993 10.0193 83.1591 10.2189C83.3188 10.4053 83.5118 10.5517 83.738 10.6581C83.9643 10.7513 84.1839 10.8312 84.3969 10.8977L86.1537 11.4168C87.0189 11.6697 87.6977 12.0623 88.1901 12.5947C88.6826 13.1271 88.9288 13.766 88.9288 14.5113C88.9288 15.1236 88.7625 15.6693 88.4297 16.1484C88.097 16.6143 87.6378 16.9803 87.0522 17.2465C86.4665 17.5127 85.7877 17.6458 85.0158 17.6458Z" fill="#171420"/>
<path d="M39.6191 4.93189V2.53613H41.4759V4.93189H39.6191ZM39.6191 17.4098V6.64885H41.4759V17.4098H39.6191Z" fill="#171420"/>
<path fill-rule="evenodd" clip-rule="evenodd" d="M26.8281 16.5864V2.52953C26.8281 2.24948 27.0551 2.02246 27.3351 2.02246H34.7607C34.8898 2.02246 35.0139 2.07164 35.108 2.15999L38.0218 4.89786C38.1238 4.9937 38.1817 5.12744 38.1817 5.26741V8.19118C38.1817 8.32898 38.1256 8.46078 38.0265 8.55638L35.2754 11.2072C35.1809 11.2982 35.0548 11.3491 34.9236 11.3491H29.3893C29.1093 11.3491 28.8823 11.5761 28.8823 11.8562V16.5864C28.8823 16.8665 28.6552 17.0935 28.3752 17.0935H27.3351C27.0551 17.0935 26.8281 16.8665 26.8281 16.5864ZM36.0579 4.94447V8.48478C36.0579 8.93288 35.6947 9.29608 35.2466 9.29608H28.9515V4.13316H35.2466C35.6947 4.13316 36.0579 4.4964 36.0579 4.94447Z" fill="#171420"/>
<path d="M51.3009 14.5721V2.16391C51.3009 2.1079 51.2555 2.0625 51.1995 2.0625H49.3299C49.2739 2.0625 49.2285 2.1079 49.2285 2.16391V13.6978C49.2285 13.8861 49.3033 14.0667 49.4364 14.1998L52.1247 16.8879C52.2578 17.021 52.4384 17.0958 52.6266 17.0958H57.1805C57.2365 17.0958 57.2819 17.0504 57.2819 16.9944V15.1159C57.2819 15.0599 57.2365 15.0145 57.1805 15.0145H51.7433C51.499 15.0145 51.3009 14.8164 51.3009 14.5721Z" fill="#171420"/>
</svg>
